<svg width="1902" height="687" viewBox="0 0 1902 687" fill="none" xmlns="http://www.w3.org/2000/svg">
<path d="M62.6911 221.238L62.2616 66.1381L0.761829 66.3084L0.609789 11.4086L194.409 10.8719L194.561 65.7717L133.061 65.942L133.491 221.041L62.6911 221.238ZM320.563 225.323C303.563 225.37 287.755 222.714 273.141 217.355C258.726 211.995 246.205 204.429 235.578 194.659C224.95 184.688 216.618 173.011 210.58 159.628C204.743 146.244 201.803 131.652 201.759 115.852C201.715 99.852 204.574 85.244 210.338 72.028C216.301 58.6115 224.569 46.9885 235.141 37.1592C245.714 27.1299 258.192 19.3953 272.577 13.9554C287.162 8.51503 302.955 5.77128 319.955 5.7242C337.155 5.67657 352.962 8.3328 367.377 13.6929C381.792 19.053 394.313 26.7183 404.941 36.689C415.568 46.4596 423.8 58.0368 429.637 71.4207C435.674 84.604 438.714 99.1957 438.758 115.196C438.802 130.996 435.842 145.604 429.88 159.02C424.117 172.436 415.949 184.159 405.377 194.188C394.804 204.018 382.325 211.652 367.94 217.092C353.555 222.532 337.763 225.276 320.563 225.323ZM320.404 168.024C327.004 168.005 333.101 166.788 338.694 164.373C344.487 161.957 349.478 158.543 353.666 154.131C358.053 149.519 361.438 144.01 363.82 137.603C366.202 130.997 367.381 123.593 367.359 115.393C367.336 107.193 366.116 99.8967 363.698 93.5034C361.28 86.9101 357.864 81.4195 353.452 77.0317C349.24 72.4434 344.23 68.9572 338.423 66.5733C332.817 64.1888 326.713 63.0057 320.113 63.024C313.513 63.0423 307.317 64.2594 301.523 66.6755C295.93 69.091 290.94 72.6048 286.553 77.217C282.365 81.6286 279.08 87.1377 276.698 93.7443C274.316 100.151 273.136 107.454 273.159 115.654C273.182 123.854 274.402 131.251 276.82 137.844C279.238 144.237 282.553 149.728 286.766 154.317C291.178 158.704 296.188 162.091 301.794 164.475C307.601 166.859 313.804 168.042 320.404 168.024ZM600.287 219.749L599.857 64.6493L538.357 64.8196L538.205 9.91979L732.005 9.38308L732.157 64.2829L670.657 64.4532L671.086 219.553L600.287 219.749ZM858.158 223.835C841.158 223.882 825.351 221.225 810.736 215.866C796.321 210.506 783.8 202.94 773.173 193.17C762.546 183.199 754.213 171.522 748.176 158.139C742.339 144.755 739.399 130.163 739.355 114.363C739.31 98.3632 742.17 83.7552 747.933 70.5392C753.896 57.1226 762.164 45.4997 772.737 35.6704C783.309 25.6411 795.788 17.9065 810.173 12.4666C824.758 7.02621 840.55 4.28246 857.55 4.23538C874.75 4.18775 890.558 6.84398 904.973 12.2041C919.387 17.5642 931.909 25.2295 942.536 35.2001C953.163 44.9707 961.396 56.548 967.233 69.9319C973.269 83.1152 976.31 97.7069 976.354 113.707C976.398 129.507 973.438 144.115 967.475 157.532C961.712 170.948 953.545 182.67 942.973 192.7C932.4 202.529 919.921 210.163 905.536 215.603C891.151 221.043 875.358 223.787 858.158 223.835ZM858 166.535C864.6 166.516 870.696 165.3 876.29 162.884C882.083 160.468 887.074 157.054 891.261 152.643C895.649 148.03 899.033 142.521 901.416 136.114C903.797 129.508 904.977 122.104 904.954 113.905C904.931 105.705 903.711 98.4079 901.294 92.0146C898.875 85.4212 895.46 79.9307 891.048 75.5429C886.835 70.9545 881.825 67.4684 876.019 65.0845C870.412 62.7 864.309 61.5169 857.709 61.5352C851.109 61.5534 844.912 62.7706 839.119 65.1867C833.526 67.6022 828.535 71.116 824.148 75.7282C819.96 80.1398 816.676 85.6489 814.294 92.2555C811.912 98.6621 810.732 105.965 810.755 114.165C810.777 122.365 811.998 129.762 814.416 136.355C816.834 142.749 820.149 148.24 824.362 152.828C828.774 157.216 833.783 160.602 839.39 162.986C845.196 165.37 851.4 166.553 858 166.535ZM1137.88 218.26L1137.45 63.1604L1075.95 63.3308L1075.8 8.43097L1269.6 7.89426L1269.75 62.7941L1208.25 62.9644L1208.68 218.064L1137.88 218.26ZM1395.75 222.346C1378.75 222.393 1362.95 219.737 1348.33 214.377C1333.92 209.017 1321.4 201.452 1310.77 191.681C1300.14 181.71 1291.81 170.033 1285.77 156.65C1279.93 143.266 1276.99 128.674 1276.95 112.874C1276.91 96.8744 1279.77 82.2664 1285.53 69.0504C1291.49 55.6338 1299.76 44.0109 1310.33 34.1816C1320.9 24.1522 1333.38 16.4177 1347.77 10.9778C1362.35 5.53739 1378.15 2.79364 1395.15 2.74656C1412.35 2.69893 1428.15 5.35516 1442.57 10.7153C1456.98 16.0754 1469.5 23.7407 1480.13 33.7113C1490.76 43.4819 1498.99 55.0592 1504.83 68.4431C1510.86 81.6264 1513.91 96.218 1513.95 112.218C1513.99 128.018 1511.03 142.626 1505.07 156.043C1499.31 169.459 1491.14 181.181 1480.57 191.211C1470 201.04 1457.52 208.675 1443.13 214.114C1428.75 219.554 1412.95 222.298 1395.75 222.346ZM1395.6 165.046C1402.2 165.028 1408.29 163.811 1413.89 161.395C1419.68 158.979 1424.67 155.565 1428.86 151.154C1433.24 146.542 1436.63 141.032 1439.01 134.626C1441.39 128.019 1442.57 120.616 1442.55 112.416C1442.53 104.216 1441.31 96.9191 1438.89 90.5258C1436.47 83.9324 1433.06 78.4419 1428.64 74.0541C1424.43 69.4657 1419.42 65.9796 1413.61 63.5957C1408.01 61.2112 1401.9 60.0281 1395.3 60.0463C1388.7 60.0646 1382.51 61.2818 1376.71 63.6978C1371.12 66.1133 1366.13 69.6272 1361.74 74.2393C1357.56 78.651 1354.27 84.1601 1351.89 90.7667C1349.51 97.1733 1348.33 104.477 1348.35 112.677C1348.37 120.877 1349.59 128.273 1352.01 134.867C1354.43 141.26 1357.74 146.751 1361.96 151.339C1366.37 155.727 1371.38 159.113 1376.99 161.497C1382.79 163.881 1389 165.064 1395.6 165.046ZM1675.48 216.771L1675.05 61.6716L1613.55 61.8419L1613.4 6.94215L1807.2 6.40544L1807.35 61.3052L1745.85 61.4756L1746.28 216.575L1675.48 216.771ZM1933.35 220.857C1916.35 220.904 1900.54 218.248 1885.93 212.888C1871.51 207.528 1858.99 199.963 1848.36 190.192C1837.74 180.222 1829.4 168.545 1823.37 155.161C1817.53 141.777 1814.59 127.185 1814.55 111.385C1814.5 95.3856 1817.36 80.7776 1823.12 67.5616C1829.09 54.145 1837.36 42.5221 1847.93 32.6927C1858.5 22.6634 1870.98 14.9288 1885.36 9.48899C1899.95 4.04857 1915.74 1.30482 1932.74 1.25774C1949.94 1.21011 1965.75 3.86634 1980.16 9.22645C1994.58 14.5865 2007.1 22.2519 2017.73 32.2225C2028.35 41.9931 2036.59 53.5704 2042.42 66.9542C2048.46 80.1376 2051.5 94.7292 2051.55 110.729C2051.59 126.529 2048.63 141.137 2042.67 154.554C2036.9 167.97 2028.74 179.693 2018.16 189.722C2007.59 199.551 1995.11 207.186 1980.73 212.626C1966.34 218.066 1950.55 220.809 1933.35 220.857ZM1933.19 163.557C1939.79 163.539 1945.89 162.322 1951.48 159.906C1957.27 157.49 1962.26 154.077 1966.45 149.665C1970.84 145.053 1974.22 139.543 1976.61 133.137C1978.99 126.53 1980.17 119.127 1980.15 110.927C1980.12 102.727 1978.9 95.4303 1976.48 89.0369C1974.07 82.4436 1970.65 76.953 1966.24 72.5653C1962.03 67.9769 1957.02 64.4908 1951.21 62.1068C1945.6 59.7223 1939.5 58.5392 1932.9 58.5575C1926.3 58.5758 1920.1 59.793 1914.31 62.209C1908.72 64.6245 1903.73 68.1384 1899.34 72.7505C1895.15 77.1621 1891.87 82.6713 1889.49 89.2779C1887.1 95.6845 1885.92 102.988 1885.95 111.188C1885.97 119.388 1887.19 126.784 1889.61 133.378C1892.02 139.771 1895.34 145.262 1899.55 149.85C1903.97 154.238 1908.97 157.624 1914.58 160.009C1920.39 162.393 1926.59 163.575 1933.19 163.557ZM17.7283 451.363L17.1467 241.364L120.646 241.077C144.046 241.012 164.658 245.255 182.482 253.806C200.305 262.157 214.238 274.118 224.281 289.69C234.325 305.263 239.376 323.849 239.436 345.449C239.496 367.248 234.548 386.062 224.592 401.89C214.635 417.517 200.769 429.656 182.993 438.305C165.216 446.754 144.628 451.011 121.228 451.076L17.7283 451.363ZM88.3751 395.967L118.075 395.885C128.075 395.857 136.77 393.933 144.159 390.113C151.749 386.291 157.633 380.675 161.813 373.264C165.991 365.652 168.066 356.446 168.036 345.646C168.007 335.046 165.882 326.052 161.661 318.664C157.441 311.275 151.525 305.692 143.915 301.913C136.504 298.133 127.799 296.257 117.799 296.285L88.0993 296.367L88.3751 395.967ZM375.692 455.172C358.692 455.219 342.884 452.562 328.27 447.203C313.855 441.843 301.334 434.277 290.707 424.507C280.079 414.536 271.746 402.859 265.709 389.476C259.872 376.092 256.932 361.5 256.888 345.7C256.844 329.7 259.703 315.092 265.467 301.876C271.43 288.46 279.698 276.837 290.27 267.007C300.843 256.978 313.321 249.244 327.706 243.804C342.291 238.363 358.084 235.619 375.084 235.572C392.284 235.525 408.091 238.181 422.506 243.541C436.921 248.901 449.442 256.567 460.07 266.537C470.697 276.308 478.929 287.885 484.766 301.269C490.803 314.452 493.843 329.044 493.887 345.044C493.931 360.844 490.971 375.452 485.009 388.869C479.246 402.285 471.078 414.007 460.506 424.037C449.933 433.866 437.454 441.5 423.069 446.94C408.684 452.38 392.892 455.124 375.692 455.172ZM375.533 397.872C382.133 397.854 388.23 396.637 393.823 394.221C399.616 391.805 404.607 388.391 408.795 383.98C413.182 379.367 416.567 373.858 418.949 367.451C421.331 360.845 422.51 353.442 422.488 345.242C422.465 337.042 421.245 329.745 418.827 323.352C416.409 316.758 412.993 311.268 408.581 306.88C404.368 302.292 399.359 298.805 393.552 296.422C387.946 294.037 381.842 292.854 375.242 292.872C368.642 292.89 362.446 294.108 356.652 296.524C351.059 298.939 346.069 302.453 341.681 307.065C337.494 311.477 334.209 316.986 331.827 323.593C329.445 329.999 328.265 337.302 328.288 345.502C328.311 353.702 329.531 361.099 331.949 367.692C334.367 374.086 337.682 379.577 341.895 384.165C346.307 388.553 351.317 391.939 356.923 394.323C362.73 396.707 368.933 397.89 375.533 397.872ZM609.816 449.723L609.234 239.724L712.734 239.437C736.134 239.373 756.746 243.615 774.569 252.166C792.393 260.517 806.326 272.478 816.369 288.051C826.412 303.623 831.464 322.209 831.523 343.809C831.584 365.609 826.636 384.422 816.68 400.25C806.723 415.878 792.856 428.016 775.08 436.665C757.304 445.115 736.715 449.372 713.315 449.437L609.816 449.723ZM680.463 394.327L710.163 394.245C720.163 394.217 728.857 392.293 736.247 388.473C743.836 384.652 749.721 379.035 753.9 371.624C758.079 364.012 760.154 354.806 760.124 344.007C760.094 333.407 757.969 324.412 753.749 317.024C749.528 309.636 743.613 304.052 736.002 300.273C728.592 296.494 719.887 294.618 709.887 294.645L680.187 294.728L680.463 394.327ZM967.779 453.532C950.779 453.579 934.972 450.923 920.357 445.563C905.942 440.203 893.421 432.638 882.794 422.867C872.166 412.896 863.834 401.22 857.797 387.836C851.96 374.452 849.019 359.86 848.976 344.06C848.931 328.061 851.791 313.453 857.554 300.237C863.517 286.82 871.785 275.197 882.358 265.368C892.93 255.338 905.409 247.604 919.794 242.164C934.379 236.724 950.171 233.98 967.171 233.933C984.371 233.885 1000.18 236.541 1014.59 241.901C1029.01 247.261 1041.53 254.927 1052.16 264.897C1062.78 274.668 1071.02 286.245 1076.85 299.629C1082.89 312.813 1085.93 327.404 1085.97 343.404C1086.02 359.204 1083.06 373.812 1077.1 387.229C1071.33 400.645 1063.17 412.368 1052.59 422.397C1042.02 432.226 1029.54 439.861 1015.16 445.301C1000.77 450.74 984.979 453.484 967.779 453.532ZM967.621 396.232C974.221 396.214 980.317 394.997 985.911 392.581C991.704 390.165 996.695 386.752 1000.88 382.34C1005.27 377.728 1008.65 372.218 1011.04 365.812C1013.42 359.205 1014.6 351.802 1014.58 343.602C1014.55 335.402 1013.33 328.105 1010.91 321.712C1008.5 315.119 1005.08 309.628 1000.67 305.24C996.456 300.652 991.446 297.166 985.64 294.782C980.033 292.397 973.93 291.214 967.33 291.232C960.73 291.251 954.533 292.468 948.74 294.884C943.147 297.299 938.156 300.813 933.769 305.425C929.581 309.837 926.296 315.346 923.915 321.953C921.533 328.359 920.353 335.663 920.375 343.863C920.398 352.063 921.619 359.459 924.037 366.053C926.455 372.446 929.77 377.937 933.983 382.525C938.395 386.913 943.404 390.299 949.011 392.684C954.817 395.068 961.021 396.25 967.621 396.232ZM1201.9 448.083L1201.32 238.084L1304.82 237.798C1328.22 237.733 1348.83 241.976 1366.66 250.526C1384.48 258.877 1398.41 270.839 1408.46 286.411C1418.5 301.983 1423.55 320.569 1423.61 342.169C1423.67 363.969 1418.72 382.783 1408.77 398.61C1398.81 414.238 1384.94 426.376 1367.17 435.026C1349.39 443.475 1328.8 447.732 1305.4 447.797L1201.9 448.083ZM1272.55 392.688L1302.25 392.605C1312.25 392.578 1320.94 390.654 1328.33 386.833C1335.92 383.012 1341.81 377.396 1345.99 369.984C1350.17 362.373 1352.24 353.167 1352.21 342.367C1352.18 331.767 1350.06 322.773 1345.84 315.384C1341.62 307.996 1335.7 302.412 1328.09 298.633C1320.68 294.854 1311.97 292.978 1301.97 293.006L1272.27 293.088L1272.55 392.688ZM1559.87 451.892C1542.87 451.939 1527.06 449.283 1512.44 443.923C1498.03 438.563 1485.51 430.998 1474.88 421.227C1464.25 411.257 1455.92 399.58 1449.88 386.196C1444.05 372.813 1441.11 358.221 1441.06 342.421C1441.02 326.421 1443.88 311.813 1449.64 298.597C1455.6 285.18 1463.87 273.557 1474.45 263.728C1485.02 253.699 1497.5 245.964 1511.88 240.524C1526.47 235.084 1542.26 232.34 1559.26 232.293C1576.46 232.245 1592.27 234.902 1606.68 240.262C1621.1 245.622 1633.62 253.287 1644.24 263.258C1654.87 273.028 1663.1 284.606 1668.94 297.989C1674.98 311.173 1678.02 325.764 1678.06 341.764C1678.11 357.564 1675.15 372.173 1669.18 385.589C1663.42 399.005 1655.25 410.728 1644.68 420.757C1634.11 430.586 1621.63 438.221 1607.24 443.661C1592.86 449.101 1577.07 451.844 1559.87 451.892ZM1559.71 394.592C1566.31 394.574 1572.4 393.357 1578 390.942C1583.79 388.526 1588.78 385.112 1592.97 380.7C1597.36 376.088 1600.74 370.579 1603.12 364.172C1605.51 357.565 1606.69 350.162 1606.66 341.962C1606.64 333.762 1605.42 326.465 1603 320.072C1600.58 313.479 1597.17 307.988 1592.76 303.6C1588.54 299.012 1583.53 295.526 1577.73 293.142C1572.12 290.758 1566.02 289.574 1559.42 289.593C1552.82 289.611 1546.62 290.828 1540.83 293.244C1535.23 295.66 1530.24 299.174 1525.86 303.786C1521.67 308.197 1518.38 313.706 1516 320.313C1513.62 326.72 1512.44 334.023 1512.46 342.223C1512.49 350.423 1513.71 357.82 1516.12 364.413C1518.54 370.806 1521.86 376.297 1526.07 380.885C1530.48 385.273 1535.49 388.659 1541.1 391.044C1546.9 393.428 1553.11 394.611 1559.71 394.592ZM1793.99 446.444L1793.41 236.445L1896.91 236.158C1920.31 236.093 1940.92 240.336 1958.74 248.887C1976.57 257.237 1990.5 269.199 2000.54 284.771C2010.59 300.343 2015.64 318.929 2015.7 340.529C2015.76 362.329 2010.81 381.143 2000.85 396.971C1990.9 412.598 1977.03 424.737 1959.26 433.386C1941.48 441.835 1920.89 446.092 1897.49 446.157L1793.99 446.444ZM1864.64 391.048L1894.34 390.966C1904.34 390.938 1913.03 389.014 1920.42 385.193C1928.01 381.372 1933.9 375.756 1938.08 368.344C1942.25 360.733 1944.33 351.527 1944.3 340.727C1944.27 330.127 1942.14 321.133 1937.92 313.745C1933.7 306.356 1927.79 300.773 1920.18 296.994C1912.77 293.214 1904.06 291.338 1894.06 291.366L1864.36 291.448L1864.64 391.048ZM2151.95 450.252C2134.95 450.299 2119.15 447.643 2104.53 442.284C2090.12 436.924 2077.6 429.358 2066.97 419.588C2056.34 409.617 2048.01 397.94 2041.97 384.557C2036.14 371.173 2033.19 356.581 2033.15 340.781C2033.11 324.781 2035.97 310.173 2041.73 296.957C2047.69 283.54 2055.96 271.918 2066.53 262.088C2077.11 252.059 2089.58 244.324 2103.97 238.884C2118.55 233.444 2134.35 230.7 2151.35 230.653C2168.55 230.606 2184.35 233.262 2198.77 238.622C2213.18 243.982 2225.7 251.647 2236.33 261.618C2246.96 271.389 2255.19 282.966 2261.03 296.35C2267.07 309.533 2270.11 324.125 2270.15 340.125C2270.19 355.925 2267.23 370.533 2261.27 383.949C2255.51 397.365 2247.34 409.088 2236.77 419.117C2226.2 428.947 2213.72 436.581 2199.33 442.021C2184.95 447.461 2169.15 450.205 2151.95 450.252ZM2151.8 392.953C2158.4 392.934 2164.49 391.717 2170.09 389.302C2175.88 386.886 2180.87 383.472 2185.06 379.06C2189.44 374.448 2192.83 368.939 2195.21 362.532C2197.59 355.926 2198.77 348.522 2198.75 340.322C2198.73 332.122 2197.51 324.826 2195.09 318.432C2192.67 311.839 2189.26 306.349 2184.84 301.961C2180.63 297.372 2175.62 293.886 2169.81 291.502C2164.21 289.118 2158.11 287.935 2151.51 287.953C2144.91 287.971 2138.71 289.188 2132.92 291.605C2127.32 294.02 2122.33 297.534 2117.94 302.146C2113.76 306.558 2110.47 312.067 2108.09 318.673C2105.71 325.08 2104.53 332.383 2104.55 340.583C2104.57 348.783 2105.79 356.18 2108.21 362.773C2110.63 369.167 2113.95 374.657 2118.16 379.246C2122.57 383.634 2127.58 387.02 2133.19 389.404C2138.99 391.788 2145.2 392.971 2151.8 392.953ZM18.3652 681.362L17.7837 471.363L88.5834 471.167L89.0129 626.266L183.813 626.004L183.965 680.903L18.3652 681.362ZM203.521 680.849L202.939 470.85L273.739 470.654L274.32 680.653L203.521 680.849ZM386.716 685.142C369.116 685.191 352.111 683.238 335.7 679.283C319.289 675.329 305.774 670.166 295.157 663.795L317.814 612.132C327.83 617.905 338.943 622.574 351.153 626.14C363.562 629.506 375.567 631.173 387.167 631.14C393.967 631.122 399.265 630.707 403.063 629.896C407.06 628.885 409.957 627.577 411.752 625.972C413.547 624.167 414.442 622.065 414.435 619.665C414.424 615.865 412.316 612.871 408.11 610.682C403.904 608.494 398.299 606.71 391.295 605.329C384.491 603.748 376.986 602.169 368.782 600.591C360.577 598.814 352.271 596.537 343.863 593.76C335.655 590.983 328.045 587.304 321.032 582.723C314.22 578.142 308.703 572.158 304.482 564.769C300.261 557.181 298.135 547.787 298.104 536.587C298.068 523.587 301.636 511.777 308.806 501.157C316.176 490.337 327.053 481.706 341.435 475.267C356.017 468.826 374.108 465.576 395.708 465.516C409.908 465.477 423.912 466.938 437.72 469.9C451.529 472.862 463.941 477.427 474.958 483.597L453.801 534.956C443.386 529.784 433.275 525.912 423.468 523.34C413.861 520.766 404.457 519.492 395.258 519.518C388.458 519.536 383.059 520.151 379.063 521.362C375.066 522.574 372.17 524.182 370.376 526.187C368.781 528.191 367.988 530.393 367.994 532.793C368.004 536.393 370.112 539.287 374.318 541.476C378.524 543.464 384.028 545.149 390.832 546.53C397.836 547.911 405.44 549.39 413.645 550.967C422.049 552.544 430.355 554.721 438.563 557.498C446.771 560.275 454.281 563.954 461.094 568.536C468.106 573.116 473.723 579.101 477.943 586.489C482.164 593.877 484.289 603.071 484.32 614.071C484.355 626.871 480.688 638.682 473.318 649.502C466.147 660.122 455.371 668.752 440.989 675.392C426.607 681.831 408.516 685.082 386.716 685.142ZM548.241 679.895L547.811 524.795L486.311 524.965L486.159 470.066L679.958 469.529L680.111 524.429L618.611 524.599L619.04 679.699L548.241 679.895ZM788.87 679.228L788.289 469.229L859.088 469.033L859.518 624.132L954.317 623.87L954.469 678.77L788.87 679.228ZM974.026 678.715L973.444 468.716L1044.24 468.52L1044.83 678.519L974.026 678.715ZM1157.22 683.008C1139.62 683.057 1122.62 681.104 1106.2 677.149C1089.79 673.195 1076.28 668.032 1065.66 661.662L1088.32 609.999C1098.33 615.771 1109.45 620.44 1121.66 624.006C1134.07 627.372 1146.07 629.039 1157.67 629.007C1164.47 628.988 1169.77 628.573 1173.57 627.763C1177.57 626.752 1180.46 625.444 1182.26 623.839C1184.05 622.034 1184.95 619.931 1184.94 617.531C1184.93 613.731 1182.82 610.737 1178.61 608.549C1174.41 606.36 1168.8 604.576 1161.8 603.195C1155 601.614 1147.49 600.035 1139.29 598.457C1131.08 596.68 1122.78 594.403 1114.37 591.626C1106.16 588.849 1098.55 585.17 1091.54 580.59C1084.72 576.008 1079.21 570.024 1074.99 562.635C1070.77 555.047 1068.64 545.653 1068.61 534.453C1068.57 521.453 1072.14 509.643 1079.31 499.023C1086.68 488.203 1097.56 479.573 1111.94 473.133C1126.52 466.692 1144.61 463.442 1166.21 463.382C1180.41 463.343 1194.42 464.804 1208.23 467.766C1222.03 470.728 1234.45 475.293 1245.46 481.463L1224.31 532.822C1213.89 527.651 1203.78 523.779 1193.97 521.206C1184.37 518.632 1174.96 517.358 1165.76 517.384C1158.96 517.403 1153.56 518.018 1149.57 519.229C1145.57 520.44 1142.68 522.048 1140.88 524.053C1139.29 526.057 1138.49 528.259 1138.5 530.659C1138.51 534.259 1140.62 537.154 1144.82 539.342C1149.03 541.33 1154.53 543.015 1161.34 544.396C1168.34 545.777 1175.95 547.256 1184.15 548.833C1192.55 550.41 1200.86 552.587 1209.07 555.364C1217.28 558.141 1224.79 561.821 1231.6 566.402C1238.61 570.982 1244.23 576.967 1248.45 584.355C1252.67 591.743 1254.79 600.938 1254.82 611.938C1254.86 624.737 1251.19 636.548 1243.82 647.368C1236.65 657.988 1225.88 666.618 1211.49 673.258C1197.11 679.698 1179.02 682.948 1157.22 683.008ZM1318.75 677.761L1318.32 522.661L1256.82 522.832L1256.66 467.932L1450.46 467.395L1450.62 522.295L1389.12 522.465L1389.55 677.565L1318.75 677.761ZM1559.37 677.094L1558.79 467.095L1629.59 466.899L1630.02 621.998L1724.82 621.736L1724.97 676.636L1559.37 677.094ZM1744.53 676.582L1743.95 466.582L1814.75 466.386L1815.33 676.386L1744.53 676.582ZM1927.73 680.874C1910.13 680.923 1893.12 678.97 1876.71 675.016C1860.3 671.061 1846.78 665.898 1836.17 659.528L1858.82 607.865C1868.84 613.637 1879.95 618.306 1892.16 621.873C1904.57 625.238 1916.58 626.905 1928.18 626.873C1934.98 626.854 1940.28 626.439 1944.07 625.629C1948.07 624.618 1950.97 623.31 1952.76 621.705C1954.56 619.9 1955.45 617.797 1955.44 615.397C1955.43 611.597 1953.33 608.603 1949.12 606.415C1944.91 604.226 1939.31 602.442 1932.3 601.061C1925.5 599.48 1918 597.901 1909.79 596.324C1901.59 594.546 1893.28 592.269 1884.87 589.493C1876.66 586.715 1869.05 583.036 1862.04 578.456C1855.23 573.875 1849.71 567.89 1845.49 560.502C1841.27 552.913 1839.15 543.519 1839.11 532.319C1839.08 519.319 1842.65 507.509 1849.82 496.889C1857.19 486.069 1868.06 477.439 1882.44 470.999C1897.03 464.558 1915.12 461.308 1936.72 461.249C1950.92 461.209 1964.92 462.67 1978.73 465.632C1992.54 468.594 2004.95 473.16 2015.97 479.329L1994.81 530.688C1984.4 525.517 1974.29 521.645 1964.48 519.072C1954.87 516.498 1945.47 515.224 1936.27 515.25C1929.47 515.269 1924.07 515.884 1920.07 517.095C1916.08 518.306 1913.18 519.914 1911.39 521.919C1909.79 523.923 1909 526.126 1909 528.526C1909.01 532.125 1911.12 535.02 1915.33 537.208C1919.53 539.196 1925.04 540.881 1931.84 542.262C1938.85 543.643 1946.45 545.122 1954.65 546.699C1963.06 548.276 1971.36 550.453 1979.57 553.23C1987.78 556.007 1995.29 559.687 2002.1 564.268C2009.12 568.848 2014.73 574.833 2018.95 582.221C2023.17 589.61 2025.3 598.804 2025.33 609.804C2025.36 622.604 2021.7 634.414 2014.33 645.234C2007.16 655.854 1996.38 664.484 1982 671.124C1967.62 677.564 1949.53 680.814 1927.73 680.874ZM2089.25 675.627L2088.82 520.528L2027.32 520.698L2027.17 465.798L2220.97 465.261L2221.12 520.161L2159.62 520.331L2160.05 675.431L2089.25 675.627Z" fill="#426D96" fill-opacity="0.05"/>
</svg>
