<svg width="60" height="60" viewBox="0 0 60 60" fill="none" xmlns="http://www.w3.org/2000/svg">
<path d="M30.0001 5C25.6147 5 21.9631 8.27679 21.3502 12.5H12.7979C12.6915 12.4818 12.5837 12.4728 12.4757 12.4731C12.3824 12.4752 12.2893 12.4841 12.1974 12.5H8.12509C7.87663 12.4965 7.62995 12.5424 7.39939 12.635C7.16882 12.7277 6.95897 12.8652 6.78203 13.0397C6.60508 13.2142 6.46458 13.422 6.36868 13.6513C6.27277 13.8805 6.22339 14.1265 6.22339 14.375C6.22339 14.6235 6.27277 14.8695 6.36868 15.0987C6.46458 15.328 6.60508 15.5358 6.78203 15.7103C6.95897 15.8848 7.16882 16.0223 7.39939 16.115C7.62995 16.2076 7.87663 16.2535 8.12509 16.25H10.7984L13.9454 48.7866C14.2843 52.2949 17.2648 55 20.7887 55H39.2091C42.7331 55 45.7136 52.2952 46.0523 48.7866L49.2018 16.25H51.8751C52.1236 16.2535 52.3702 16.2076 52.6008 16.115C52.8314 16.0223 53.0412 15.8848 53.2182 15.7103C53.3951 15.5358 53.5356 15.328 53.6315 15.0987C53.7274 14.8695 53.7768 14.6235 53.7768 14.375C53.7768 14.1265 53.7274 13.8805 53.6315 13.6513C53.5356 13.422 53.3951 13.2142 53.2182 13.0397C53.0412 12.8652 52.8314 12.7277 52.6008 12.635C52.3702 12.5424 52.1236 12.4965 51.8751 12.5H47.8053C47.6064 12.4677 47.4036 12.4677 47.2047 12.5H38.65C38.0371 8.27679 34.3855 5 30.0001 5ZM30.0001 8.75C32.349 8.75 34.2761 10.3352 34.8268 12.5H25.1734C25.7241 10.3352 27.6511 8.75 30.0001 8.75ZM14.5631 16.25H45.4347L42.3194 48.4253C42.1631 50.0442 40.835 51.25 39.2091 51.25H20.7887C19.165 51.25 17.8345 50.042 17.6783 48.4253L14.5631 16.25ZM25.5958 22.4731C25.0989 22.4809 24.6255 22.6856 24.2794 23.0422C23.9333 23.3988 23.743 23.8781 23.7501 24.375V43.125C23.7466 43.3735 23.7925 43.6201 23.8851 43.8507C23.9778 44.0813 24.1153 44.2911 24.2898 44.4681C24.4643 44.645 24.6721 44.7855 24.9014 44.8814C25.1306 44.9773 25.3766 45.0267 25.6251 45.0267C25.8736 45.0267 26.1196 44.9773 26.3488 44.8814C26.5781 44.7855 26.7859 44.645 26.9604 44.4681C27.1349 44.2911 27.2724 44.0813 27.3651 43.8507C27.4577 43.6201 27.5036 43.3735 27.5001 43.125V24.375C27.5037 24.124 27.4569 23.8749 27.3624 23.6424C27.268 23.4099 27.1278 23.1987 26.9502 23.0213C26.7726 22.8439 26.5612 22.704 26.3286 22.6099C26.0959 22.5157 25.8467 22.4692 25.5958 22.4731ZM34.3458 22.4731C33.8489 22.4809 33.3755 22.6856 33.0294 23.0422C32.6833 23.3988 32.493 23.8781 32.5001 24.375V43.125C32.4966 43.3735 32.5425 43.6201 32.6351 43.8507C32.7278 44.0813 32.8653 44.2911 33.0398 44.4681C33.2143 44.645 33.4221 44.7855 33.6514 44.8814C33.8806 44.9773 34.1266 45.0267 34.3751 45.0267C34.6236 45.0267 34.8696 44.9773 35.0988 44.8814C35.3281 44.7855 35.5359 44.645 35.7104 44.4681C35.8849 44.2911 36.0224 44.0813 36.1151 43.8507C36.2077 43.6201 36.2536 43.3735 36.2501 43.125V24.375C36.2537 24.124 36.2069 23.8749 36.1124 23.6424C36.018 23.4099 35.8778 23.1987 35.7002 23.0213C35.5226 22.8439 35.3112 22.704 35.0786 22.6099C34.8459 22.5157 34.5967 22.4692 34.3458 22.4731Z" fill="#DA0404"/>
</svg>
